<?xml version="1.0" standalone="no"?><!DOCTYPE svg PUBLIC "-//W3C//DTD SVG 1.1//EN" "http://www.w3.org/Graphics/SVG/1.1/DTD/svg11.dtd"><svg t="1561505010319" class="icon" viewBox="0 0 1024 1024" version="1.1" xmlns="http://www.w3.org/2000/svg" p-id="1648" xmlns:xlink="http://www.w3.org/1999/xlink" width="48" height="48"><defs><style type="text/css"></style></defs><path d="M512 1024C230.4 1024 0 793.6 0 512S230.4 0 512 0s512 230.4 512 512-230.4 512-512 512z" fill="#3AB394" p-id="1649"></path><path d="M1024 512c0-33.744-3.392-66.72-9.704-98.68l-557.992-156.576h-19.312s-49.656 1.768-49.656 70.472c14.48 21.296-20 32.976-37.936 49.464-17.928 16.488-21.376 24.04-44.136 74.2-32.416 50.152-11.728 176.56-11.728 176.56l194.544 395.944c7.936 0.376 15.896 0.616 23.92 0.616 281.6 0 512-230.4 512-512z" fill="#00875D" p-id="1650"></path><path d="M497.96 304.72c50.48-7.504 103.728 0.696 152.048 26.888 118.52 64.256 162.512 212.416 98.264 330.928-64.256 118.52-212.416 162.52-330.928 98.264-118.52-64.248-162.512-212.408-98.256-330.928 18.248-33.672 43.28-61.328 72.472-82.2" fill="#DACEB6" p-id="1651"></path><path d="M533.336 797.304c-41.216 0-82.016-10.256-119.28-30.448-58.928-31.952-101.904-84.936-120.984-149.2-19.08-64.264-11.992-132.12 19.96-191.056 18.352-33.856 43.424-62.288 74.52-84.512 3.088-2.232 7.384-1.496 9.6 1.592a6.888 6.888 0 0 1-1.6 9.6c-29.384 21.008-53.08 47.88-70.432 79.88-30.192 55.704-36.896 119.832-18.856 180.576s58.648 110.824 114.352 141.016c55.696 30.192 119.84 36.888 180.576 18.864 60.744-18.04 110.832-58.648 141.024-114.36 30.2-55.696 36.896-119.832 18.864-180.576-18.04-60.744-58.648-110.824-114.352-141.016-45.552-24.688-96.624-33.736-147.76-26.136-3.744 0.528-7.256-2.04-7.816-5.792a6.884 6.884 0 0 1 5.8-7.824c54.08-8.04 108.144 1.536 156.336 27.656 58.936 31.952 101.904 84.928 120.984 149.2 19.08 64.264 12 132.12-19.952 191.056-31.952 58.928-84.936 101.904-149.208 120.984-23.64 7.008-47.776 10.496-71.776 10.496" fill="#474341" p-id="1652"></path><path d="M766.128 496.592a242.41 242.41 0 0 1-28.216 99.832c-62.44 116.888-206.424 160.28-321.6 96.912-63.624-35-105.096-95.28-119-161.92-5.472 90.568 39.928 180.456 123.712 226.552 115.184 63.368 259.168 19.976 321.608-96.912 27.944-52.312 34.752-110.472 23.496-164.464" fill="#8B7A5C" p-id="1653"></path><path d="M365.408 557.488a6.9 6.9 0 0 1-3.544-0.984c-188.704-113.456-177.944-133.288-174.408-139.808 3.68-6.784 10.544-19.424 123.68 29.08a6.868 6.868 0 0 1 3.608 9.032 6.86 6.86 0 0 1-9.032 3.616c-75.68-32.456-98.928-34.768-105.048-34.48 6.52 12.336 54.136 52.12 168.296 120.76a6.884 6.884 0 0 1-3.552 12.784M817.416 772.28c-13.384 0-40.832-6.696-99.608-31.328-63.088-26.448-144.392-66.24-228.944-112.072-22.64-12.272-38.128-20.856-57.152-31.664a6.88 6.88 0 0 1-2.584-9.376 6.876 6.876 0 0 1 9.384-2.592c18.928 10.752 34.352 19.304 56.904 31.528 183.032 99.216 301.856 144.8 322.776 141.768-3.416-7.336-23.752-28.592-83.544-68.496a6.888 6.888 0 0 1-1.904-9.544c2.104-3.16 6.384-3.992 9.544-1.904 99.896 66.656 92.152 80.952 88.848 87.04-1.512 2.8-3.592 6.64-13.72 6.64m1.312-12.04h0.096-0.096z" fill="#474341" p-id="1654"></path><path d="M444.744 564.872c0 22.616-18.328 40.952-40.952 40.952-22.616 0-40.952-18.336-40.952-40.952s18.336-40.952 40.952-40.952 40.952 18.336 40.952 40.952" fill="#F7BE15" p-id="1655"></path><path d="M403.792 612.696c-26.368 0-47.824-21.456-47.824-47.832s21.456-47.832 47.824-47.832 47.824 21.456 47.824 47.832c0.008 26.376-21.456 47.832-47.824 47.832m0-81.896c-18.784 0-34.072 15.288-34.072 34.064s15.288 34.064 34.072 34.064 34.072-15.28 34.072-34.064-15.28-34.064-34.072-34.064" fill="#474341" p-id="1656"></path><path d="M338.128 277.488c0 20.024-16.232 36.264-36.264 36.264-20.024 0-36.264-16.24-36.264-36.264 0-20.024 16.232-36.264 36.264-36.264 20.024-0.008 36.264 16.232 36.264 36.264" fill="#DD9D00" p-id="1657"></path><path d="M301.856 320.64c-23.792 0-43.144-19.36-43.144-43.152s19.352-43.144 43.144-43.144 43.144 19.36 43.144 43.144-19.344 43.152-43.144 43.152m0-72.536c-16.2 0-29.384 13.176-29.384 29.384s13.184 29.384 29.384 29.384 29.384-13.176 29.384-29.384c0.008-16.2-13.176-29.384-29.384-29.384" fill="#474341" p-id="1658"></path><path d="M409.088 355.168c-22.872-19.688-25.456-54.192-5.76-77.064 19.688-22.872 54.192-25.456 77.064-5.76 22.872 19.688 25.456 54.192 5.76 77.064-19.688 22.872-54.192 25.448-77.064 5.76" fill="#EC6646" p-id="1659"></path><path d="M444.64 375.288c-14.712 0-28.784-5.208-40.048-14.904-25.712-22.136-28.624-61.056-6.488-86.76 10.72-12.456 25.656-20 42.04-21.216 16.336-1.32 32.272 4 44.728 14.72 12.448 10.72 19.984 25.656 21.216 42.04 1.224 16.392-4 32.28-14.728 44.728-10.72 12.448-25.656 19.984-42.048 21.216-1.544 0.112-3.112 0.176-4.672 0.176m0.176-109.304c-1.208 0-2.424 0.04-3.64 0.136-12.728 0.944-24.312 6.8-32.64 16.464-17.184 19.96-14.928 50.184 5.04 67.36 9.672 8.32 22.04 12.44 34.728 11.432a47.466 47.466 0 0 0 32.64-16.472c8.32-9.672 12.384-22 11.432-34.72-0.952-12.728-6.8-24.32-16.472-32.64-8.744-7.52-19.672-11.56-31.088-11.56" fill="#474341" p-id="1660"></path><path d="M741.376 568.432c-1.384 12.136-3.456 24.152-6.016 36.096-1.304 6.096 8.048 8.696 9.36 2.584 2.744-12.8 4.88-25.672 6.36-38.68 0.712-6.2-9.008-6.152-9.704 0M696.8 420.832c33.536 32.624 46.192 76.576 46.16 122.432-0.008 6.248 9.704 6.256 9.712 0 0.04-48.312-13.736-94.992-49-129.304-4.488-4.352-11.36 2.504-6.872 6.872" fill="#8B7A5C" p-id="1661"></path><path d="M415.232 296.976c-6.56 17.376 0.2 36.736 15.408 47.048 5.144 3.488 9.968-4.856 4.864-8.32-11.856-8.04-15.96-22.968-10.976-36.168 2.184-5.808-7.12-8.312-9.296-2.56" fill="#AC3E2C" p-id="1662"></path><path d="M382.584 557.936c-1.888 14.016 9.432 27.488 23.696 28.112 6.248 0.272 6.232-9.44 0-9.712-7.336-0.328-15.36-8.216-14.328-15.824 0.824-6.096-8.528-8.744-9.368-2.576" fill="#B77917" p-id="1663"></path><path d="M253.048 554.528c6.84 0 6.856-10.632 0-10.632-6.84 0-6.848 10.632 0 10.632M354.992 339.32c6.84 0 6.856-10.632 0-10.632-6.84 0-6.856 10.632 0 10.632M280.56 355.504c6.84 0 6.856-10.632 0-10.632-6.84 0-6.856 10.632 0 10.632M515.184 274.6c6.84 0 6.856-10.632 0-10.632-6.848 0-6.856 10.632 0 10.632M346.904 506.136h1.624c13.28 0 13.296-20.64 0-20.64h-1.624c-13.28-0.008-13.312 20.64 0 20.64M685.08 683.576c6.84 0 6.856-10.632 0-10.632-6.84 0-6.848 10.632 0 10.632" fill="#474341" p-id="1664"></path><path d="M551.128 605.792c-2.56 0-4.696-2-4.84-4.584l-11.992-217.664a4.85 4.85 0 0 1 4.576-5.112c2.672-0.328 4.96 1.896 5.112 4.584l12 217.664a4.852 4.852 0 0 1-4.584 5.112h-0.272M595.56 567.552a4.868 4.868 0 0 1-4.84-4.48l-16.752-213.12a4.85 4.85 0 0 1 4.464-5.216c2.608-0.144 5.008 1.784 5.216 4.456L600.4 562.32a4.844 4.844 0 0 1-4.464 5.208c-0.128 0.008-0.248 0.024-0.376 0.024M642.2 634.968a4.864 4.864 0 0 1-4.84-4.488l-16.272-214.192a4.856 4.856 0 0 1 4.464-5.216c2.744-0.112 5.008 1.792 5.208 4.48l16.28 214.192c0.2 2.672-1.8 5-4.472 5.208-0.128 0.016-0.248 0.016-0.368 0.016" fill="#8B7A5C" p-id="1665"></path></svg>