<?xml version="1.0" standalone="no"?><!DOCTYPE svg PUBLIC "-//W3C//DTD SVG 1.1//EN" "http://www.w3.org/Graphics/SVG/1.1/DTD/svg11.dtd"><svg t="1561421955074" class="icon" viewBox="0 0 1024 1024" version="1.1" xmlns="http://www.w3.org/2000/svg" p-id="1928" xmlns:xlink="http://www.w3.org/1999/xlink" width="48" height="48"><defs><style type="text/css"></style></defs><path d="M848.2 695c0 31-25.1 56.1-56.1 56.1S736 726 736 695s25.1-56.1 56.1-56.1c31-0.1 56.1 25.1 56.1 56.1z m0 0" fill="#e6e6e6" p-id="1929"></path><path d="M848.2 203.7c0 15.5-12.6 28.1-28.1 28.1-15.5 0-28.1-12.6-28.1-28.1 0-15.5 12.6-28.1 28.1-28.1 15.5 0 28.1 12.6 28.1 28.1z m0 0M328.8 596.7c0 23.3-18.9 42.1-42.1 42.1-23.3 0-42.1-18.8-42.1-42.1 0-23.2 18.9-42.1 42.1-42.1 23.3 0 42.1 18.9 42.1 42.1z m0 0" fill="#e6e6e6" p-id="1930"></path><path d="M651.7 512.5c0 77.5-62.8 140.4-140.4 140.4-77.5 0-140.3-62.9-140.3-140.4s62.9-140.4 140.4-140.4S651.7 435 651.7 512.5z m0 0" fill="#e6e6e6" p-id="1931"></path><path d="M511.3 652.9c77.5 0 140.4-62.8 140.4-140.4s-62.8-140.4-140.4-140.4c0 0 127.4 123.9 0 280.8" fill="#e6e6e6" p-id="1932"></path><path d="M511.3 666.6c-85 0-154.1-69.1-154.1-154.1s69.1-154.1 154.1-154.1 154.1 69.1 154.1 154.1-69.1 154.1-154.1 154.1z m0-280.7c-69.8 0-126.6 56.8-126.6 126.6s56.8 126.6 126.6 126.6 126.6-56.8 126.6-126.6c0.1-69.8-56.7-126.6-126.6-126.6z m0 0M511.3 764.8c-6.9 0-13.9-0.3-20.7-0.8l2.2-27.4c17.2 1.4 34.9 0.8 51.9-1.7l4 27.1c-12.3 1.9-24.8 2.8-37.4 2.8z m-49.6-4.8c-19.1-3.8-37.7-9.8-55.4-18l11.4-24.9c15.7 7.2 32.4 12.6 49.3 16l-5.3 26.9z m115.6-3.9l-7.2-26.5c16.7-4.5 32.9-11 48.2-19.2l13.1 24.1c-17.2 9.3-35.4 16.6-54.1 21.6z m-196.8-27.8c-16.6-10.1-32.1-22.1-45.9-35.7l19.2-19.6c12.4 12.2 26.2 22.9 41 31.9l-14.3 23.4z m275.6-9.1l-15.8-22.5c14.2-10 27.2-21.6 38.8-34.5l20.5 18.3C686.7 695 672 708 656.1 719.2z m61.6-61.5l-22.4-15.8c10-14.2 18.3-29.5 24.8-45.6l25.5 10.2c-7.3 18.1-16.6 35.3-27.9 51.2z m37.1-78.8l-26.5-7.2c4.5-16.7 7.1-33.9 7.7-51.3l27.4 0.9c-0.5 19.5-3.5 38.9-8.6 57.6z m-468-79l-27.4-1.5c1.1-19.5 4.4-38.8 9.9-57.4l26.3 7.8c-4.9 16.6-7.9 33.7-8.8 51.1z m448.7-5.5c-1.4-17.3-4.8-34.4-10.1-50.9l26.1-8.4c5.9 18.5 9.8 37.7 11.3 57.1l-27.3 2.2z m-431.1-70.1l-25.2-10.8c7.6-17.9 17.3-34.9 28.9-50.5l22.1 16.3c-10.4 14-19 29.1-25.8 45z m411.7-5c-7.2-15.7-16.2-30.7-26.8-44.4l21.7-16.8c11.9 15.4 22 32.1 30.1 49.8l-25 11.4z m-369.4-60l-20.1-18.7c13.3-14.2 28.2-26.9 44.3-37.8l15.3 22.8c-14.4 9.7-27.7 21-39.5 33.7z m325.5-4c-12.1-12.4-25.7-23.4-40.3-32.7l14.7-23.2c16.4 10.4 31.6 22.8 45.2 36.7l-19.6 19.2z m-263.6-42.9L396 288c17.3-8.9 35.6-15.8 54.5-20.5l6.6 26.6c-16.8 4.2-33.1 10.4-48.5 18.3z m200.6-2.4c-15.6-7.6-32.1-13.3-49-17l5.9-26.8c19 4.2 37.5 10.6 55 19.1L609.2 310z m-126.6-20.6l-3.5-27.2c19.1-2.4 39-2.7 58.2-0.7l-2.8 27.3c-17.1-1.8-34.8-1.5-51.9 0.6z m0 0M515.8 863.1l-0.3-27.4c17.9-0.2 35.8-1.9 53.2-5l4.8 27c-19 3.3-38.4 5.1-57.7 5.4z m-29-0.9c-19.3-1.3-38.6-4.3-57.3-8.8l6.4-26.7c17.3 4.1 35 6.8 52.8 8.1l-1.9 27.4z m115-10.9l-7.1-26.5c17.2-4.6 34.1-10.6 50.3-18l11.4 25c-17.5 8-35.9 14.5-54.6 19.5z m-200.3-5.7c-18.3-6-36.3-13.7-53.4-22.7l12.8-24.3c15.8 8.3 32.3 15.3 49.2 20.9l-8.6 26.1z m280.8-27l-13.4-24c15.5-8.7 30.4-18.7 44.3-29.9l17.2 21.4c-15.1 12.2-31.2 23.1-48.1 32.5zM323 808.3a350.24 350.24 0 0 1-46.1-35.1l18.4-20.4c13.2 11.9 27.6 22.8 42.5 32.4L323 808.3z m-66.9-55.4c-13.2-14.1-25.4-29.3-36.2-45.3l22.8-15.3c9.9 14.8 21.1 28.8 33.3 41.8l-19.9 18.8z m-51.3-70.1c-9.4-16.9-17.4-34.6-23.9-52.8l25.9-9.2c5.9 16.7 13.4 33.1 22 48.7l-24 13.3z m-32.5-80.5c-4.9-18.6-8.3-37.8-10.1-57.1l27.3-2.5c1.6 17.8 4.8 35.5 9.3 52.6l-26.5 7z m679.5-5.9l-26.7-6.6c4.2-17.2 7.1-35 8.4-52.8l27.4 2.1c-1.4 19.4-4.5 38.6-9.1 57.3z m-691-80.1v-3.7c0-18.1 1.4-36.3 4.1-54.1l27.1 4.2c-2.5 16.4-3.8 33.2-3.8 49.9v3.5l-27.4 0.2z m673.7-6c-0.1-17.9-1.7-35.8-4.7-53.3l27-4.7c3.3 18.9 5 38.4 5.1 57.7l-27.4 0.3z m-637.3-73.9l-26.7-6.4c4.5-18.8 10.7-37.3 18.3-55.1l25.2 10.8c-7 16.3-12.6 33.4-16.8 50.7z m626.9-5.4c-4.5-17.2-10.4-34.2-17.7-50.4l25-11.2c7.9 17.6 14.4 36 19.2 54.7l-26.5 6.9z m-598.6-69.5l-24.3-12.8c9-17 19.6-33.5 31.3-48.8l21.8 16.7a339.29 339.29 0 0 0-28.8 44.9z m569-4.9c-8.6-15.6-18.5-30.5-29.6-44.5l21.5-17c12 15.2 22.8 31.4 32.1 48.3l-24 13.2z m-523-60.7l-20.4-18.4c12.9-14.3 27.2-27.7 42.3-39.7l17.1 21.5c-14 11.1-27.1 23.4-39 36.6z m475.9-4c-12.2-13-25.5-25.1-39.6-35.9l16.7-21.8c15.3 11.7 29.8 24.9 42.9 38.9l-20 18.8z m-415.3-48.3l-15.2-22.8c16.1-10.7 33.1-20.2 50.7-28.1l11.3 25c-16.3 7.3-32 16-46.8 25.9z m353.8-3.1c-15-9.7-30.9-18.1-47.2-25.1l10.8-25.2c17.7 7.6 35 16.8 51.2 27.2l-14.8 23.1z m-282.3-32.8l-9.2-25.9c18.2-6.4 37.1-11.4 56.1-14.7l4.7 27c-17.4 3.2-34.8 7.7-51.6 13.6z m210.1-1.8c-16.9-5.6-34.3-9.9-51.9-12.6l4.3-27.1c19.1 3 38 7.6 56.3 13.7l-8.7 26z m-131.9-15.2l-2.5-27.3c19.1-1.7 38.8-1.9 57.9-0.5l-2 27.4c-17.6-1.4-35.8-1.2-53.4 0.4z m0 0M511.4 961.8c-12.6 0-25.2-0.5-37.6-1.5l2.3-27.4c11.6 1 23.5 1.5 35.2 1.5h0.1c6.1 0 12.3-0.1 18.3-0.4l1.2 27.4c-6.5 0.3-13 0.4-19.5 0.4z m48-2.5l-2.9-27.3c17.8-1.9 35.5-4.9 52.9-9.1l6.4 26.7c-18.5 4.4-37.5 7.6-56.4 9.7z m-114-2.3c-18.8-2.8-37.6-6.8-55.9-11.9l7.4-26.4c17.2 4.8 34.8 8.6 52.5 11.2l-4 27.1z m197.9-14.9l-8.1-26.2c17-5.2 33.9-11.6 50.2-19l11.3 25c-17.2 7.8-35.2 14.6-53.4 20.2z m-281-5.6c-17.9-6.3-35.6-13.8-52.6-22.4l12.3-24.5c16 8 32.6 15.1 49.4 21l-9.1 25.9z m360.1-27.3L709.5 885c15.7-8.4 31.1-17.8 45.6-28.2l15.9 22.4c-15.5 11-31.9 21.1-48.6 30z m-437.9-8.8c-16.4-9.6-32.3-20.4-47.4-32l16.8-21.7c14.1 10.9 29.1 21 44.5 30l-13.9 23.7zM793.7 862l-17.3-21.3c13.9-11.2 27.1-23.4 39.5-36.3l19.8 19c-13.1 13.6-27.2 26.6-42 38.6z m-578.6-11.7c-14.3-12.5-27.9-26.1-40.5-40.3l20.6-18.2c11.8 13.4 24.6 26.1 38 37.9l-18.1 20.6zM854.9 802l-21-17.7c11.5-13.6 22.3-28.2 31.9-43.1l23.1 14.9c-10.3 16-21.7 31.4-34 45.9z m-698.5-14c-11.7-15-22.5-30.9-32.1-47.2l23.6-14c9.1 15.3 19.2 30.3 30.2 44.3L156.4 788z m747.3-56.4l-24-13.4c8.7-15.6 16.5-31.9 23.2-48.4l25.5 10.2c-7.1 17.7-15.4 35-24.7 51.6z m-793.2-15.9c-8.6-17-16.2-34.6-22.6-52.5l25.9-9.2c6 16.8 13.1 33.4 21.2 49.3l-24.5 12.4z m827.7-62.5l-26.1-8.6c5.6-16.9 10.1-34.4 13.5-51.9l27 5.2c-3.7 18.6-8.5 37.2-14.4 55.3zM79.2 636c-5.2-18.2-9.3-37-12.1-55.8l27.1-4.1c2.7 17.6 6.5 35.3 11.4 52.4L79.2 636zM957 569.6l-27.2-3.5c2.2-17.6 3.4-35.6 3.4-53.6h27.4c0 19.2-1.2 38.3-3.6 57.1zM63.7 551.8c-1.1-13-1.7-26.2-1.7-39.3 0-5.9 0.1-11.9 0.4-17.8l27.4 1.1c-0.2 5.5-0.3 11.2-0.3 16.8 0 12.3 0.5 24.7 1.6 36.9l-27.4 2.3z m868.6-66c-1.1-17.9-3.4-35.8-6.7-53.2l27-5.2c3.6 18.6 6 37.7 7.2 56.7l-27.5 1.7zM91.7 469l-27.3-2.8c1.9-18.9 5.1-37.9 9.4-56.4l26.7 6.3c-4 17.3-7 35.1-8.8 52.9z m828-62.6c-4.5-17.3-10.1-34.4-16.8-51l25.5-10.2c7.1 17.6 13.1 35.9 17.8 54.3l-26.5 6.9z m-812.2-16.2l-26.3-8c5.5-18.2 12.2-36.2 20-53.6l25 11.2c-7.2 16.4-13.5 33.3-18.7 50.4z m784.7-59.4c-7.7-16.1-16.5-31.8-26.2-46.8l23.1-14.9c10.3 16 19.7 32.8 27.9 49.9l-24.8 11.8z m-754.1-15.1l-24.3-12.8c8.9-16.8 18.9-33.2 29.9-48.7l22.4 15.8c-10.3 14.6-19.7 30-28 45.7z m44.2-67.2l-21.4-17.2c11.9-14.8 24.9-29 38.5-42.2l19.1 19.8c-12.9 12.4-25.1 25.7-36.2 39.6z m56-57.6L220.6 170c14.5-12.3 29.9-23.8 45.8-34.2l15 23c-15 9.7-29.5 20.5-43.1 32.1zM738.5 157c-15-9.6-30.8-18.4-46.9-26l11.7-24.8c17.2 8.1 34 17.4 50 27.7L738.5 157z m-434.3-12.1L290.8 121c16.5-9.3 33.9-17.7 51.4-24.8l10.3 25.4c-16.5 6.7-32.7 14.5-48.3 23.3z m362.7-24.6c-16.6-6.6-33.8-12.2-51-16.6l6.8-26.6c18.4 4.7 36.7 10.6 54.4 17.7l-10.2 25.5z m-289.2-8l-8.7-26c18-6 36.6-10.9 55.3-14.6l5.3 26.9c-17.6 3.4-35 8-51.9 13.7z m212-14.4c-17.5-3.3-35.4-5.5-53.3-6.5L538 64c19 1.1 38.1 3.5 56.7 7l-5 26.9zM456 94.2L452.5 67c18.8-2.5 37.9-3.7 57-3.8l0.1 27.4c-18 0.1-36 1.3-53.6 3.6z m0 0M342.6 596.7c0-30.3-24.2-55-54.3-55.8-0.6-5-1.1-10-1.4-15l-27.4 1.6c0.4 6.5 1 13 1.9 19.5-18 9.3-30.4 28.1-30.4 49.7 0 30.8 25 55.8 55.8 55.8 4.7 0 9.2-0.6 13.6-1.7 4.4 6.7 9.1 13.2 14.1 19.4l21.4-17.2c-4-4.9-7.7-10.1-11.3-15.3 11-10.1 18-24.8 18-41z m-84.2 0c0-15.6 12.7-28.4 28.4-28.4s28.4 12.7 28.4 28.4c0 15.6-12.7 28.4-28.4 28.4s-28.4-12.7-28.4-28.4z m0 0M837.3 641.8c2.1-5.3 4.1-10.8 6-16.2l-26-8.8c-1.3 3.9-2.7 7.7-4.2 11.6-6.6-2.1-13.7-3.2-21-3.2-38.5 0-69.9 31.3-69.9 69.9 0 17.7 6.6 33.9 17.5 46.2-2.1 2.1-4.1 4.1-6.3 6.1l18.9 19.9c3.2-3 6.3-6.1 9.4-9.3 9.2 4.5 19.5 7 30.3 7 38.5 0 69.9-31.3 69.9-69.9 0-21.4-9.5-40.5-24.6-53.3z m-45.2 95.6c-23.4 0-42.4-19-42.4-42.4s19-42.4 42.4-42.4 42.4 19 42.4 42.4-19 42.4-42.4 42.4z m0 0M778.3 203.7c0 23 18.8 41.8 41.8 41.8 5.4 0 10.6-1.1 15.4-2.9 5.3 6.3 10.4 12.8 15.2 19.4l22.1-16.3c-5.3-7.1-10.8-14.2-16.5-21 3.6-6.2 5.6-13.3 5.6-20.9 0-23.1-18.8-41.8-41.8-41.8-7.6 0-14.8 2.1-20.9 5.6-6.8-5.7-13.9-11.3-21-16.5l-16.3 22.1c6.6 4.9 13.1 10 19.4 15.3-1.9 4.6-3 9.8-3 15.2z m41.8-14.3c7.9 0 14.3 6.4 14.3 14.3s-6.4 14.4-14.3 14.4-14.3-6.4-14.3-14.4c0-7.9 6.4-14.3 14.3-14.3z m0 0" fill="#e6e6e6" p-id="1933"></path></svg>