<?xml version="1.0" standalone="no"?><!DOCTYPE svg PUBLIC "-//W3C//DTD SVG 1.1//EN" "http://www.w3.org/Graphics/SVG/1.1/DTD/svg11.dtd"><svg t="1561506764793" class="icon" viewBox="0 0 1024 1024" version="1.1" xmlns="http://www.w3.org/2000/svg" p-id="2160" xmlns:xlink="http://www.w3.org/1999/xlink" width="48" height="48"><defs><style type="text/css"></style></defs><path d="M512 1024C230.4 1024 0 793.6 0 512S230.4 0 512 0s512 230.4 512 512-230.4 512-512 512z" fill="#3AB394" p-id="2161"></path><path d="M1024 512c0-35.328-3.632-69.848-10.536-103.216l-300-142.912-13.264-7.184c-52.168-36.552-115.96-58.128-184.928-58.128-176.04 0-325.688 137.392-325.688 310.224 0 79.928 27.384 155.552 77.608 210.864L485.36 1023.296c8.824 0.464 17.704 0.704 26.64 0.704 281.6 0 512-230.4 512-512z" fill="#00875D" p-id="2162"></path><path d="M765.968 505.848c0 138.52-112.296 250.816-250.816 250.816s-250.816-112.296-250.816-250.816 112.296-250.816 250.816-250.816 250.816 112.296 250.816 250.816" fill="#FDFBF8" p-id="2163"></path><path d="M681.128 504.656c0 93.392-75.712 169.104-169.104 169.104-93.4 0-169.112-75.712-169.112-169.104s75.712-169.104 169.112-169.104 169.104 75.712 169.104 169.104" fill="#DFDEDE" p-id="2164"></path><path d="M632.256 729.56a6.024 6.024 0 0 1-5.272-3.088 6.01 6.01 0 0 1 2.32-8.2 236.432 236.432 0 0 0 12.432-7.456 6.006 6.006 0 0 1 8.328 1.832 6.022 6.022 0 0 1-1.832 8.328 245.74 245.74 0 0 1-13.056 7.816c-0.92 0.52-1.92 0.768-2.92 0.768M503.584 760.848c-0.056 0-0.12 0-0.184-0.008a254.51 254.51 0 0 1-30.816-2.808 6.034 6.034 0 0 1-5.048-6.872c0.512-3.296 3.656-5.56 6.872-5.04 9.632 1.48 19.512 2.376 29.36 2.68a6.016 6.016 0 0 1 5.84 6.208 6.032 6.032 0 0 1-6.024 5.84m24.488-0.44a6.024 6.024 0 0 1-6-5.64 6.02 6.02 0 0 1 5.616-6.408c9.784-0.656 19.632-1.92 29.248-3.76 3.28-0.648 6.424 1.52 7.056 4.792a6.026 6.026 0 0 1-4.8 7.056 253.408 253.408 0 0 1-30.712 3.936c-0.128 0.008-0.264 0.024-0.408 0.024m-78.576-7.192c-0.504 0-1.008-0.064-1.504-0.184a254.056 254.056 0 0 1-29.48-9.504 6.034 6.034 0 0 1-3.416-7.816c1.208-3.104 4.728-4.616 7.816-3.416a238.9 238.9 0 0 0 28.064 9.056 6.03 6.03 0 0 1 4.344 7.336 6.008 6.008 0 0 1-5.824 4.528m132.4-2.448a6.03 6.03 0 0 1-1.712-11.816 244.102 244.102 0 0 0 27.704-10.08 6.018 6.018 0 0 1 7.928 3.128 6.02 6.02 0 0 1-3.128 7.928 253.832 253.832 0 0 1-29.08 10.592 5.796 5.796 0 0 1-1.712 0.248m-183.552-16.904a6.02 6.02 0 0 1-2.736-0.664 254.34 254.34 0 0 1-26.656-15.752 6.034 6.034 0 0 1-1.616-8.376 6.04 6.04 0 0 1 8.376-1.616 243.426 243.426 0 0 0 25.384 15.008 6.022 6.022 0 0 1 2.632 8.112 6.04 6.04 0 0 1-5.384 3.288m-45.624-30.088c-1.36 0-2.72-0.456-3.848-1.392a254.586 254.586 0 0 1-22.576-21.168 6.046 6.046 0 0 1 0.248-8.528 6.052 6.052 0 0 1 8.528 0.248 242.946 242.946 0 0 0 21.496 20.168 6.02 6.02 0 0 1 0.784 8.488 5.982 5.982 0 0 1-4.632 2.184m-37.96-39.288a6.014 6.014 0 0 1-4.776-2.344 254.57 254.57 0 0 1-17.432-25.576 6.034 6.034 0 0 1 10.368-6.168c5 8.4 10.584 16.608 16.592 24.36a6.034 6.034 0 0 1-1.08 8.456 5.936 5.936 0 0 1-3.672 1.272m-28.496-46.616a6.02 6.02 0 0 1-5.456-3.472 251.98 251.98 0 0 1-11.392-28.784 6.022 6.022 0 0 1 3.864-7.6c3.208-1.016 6.576 0.704 7.6 3.864 3.04 9.288 6.68 18.52 10.848 27.408a6.02 6.02 0 0 1-5.464 8.584m-17.576-51.744a6.034 6.034 0 0 1-5.88-4.736 250.76 250.76 0 0 1-4.776-30.576 6.018 6.018 0 0 1 5.432-6.56c3.288-0.376 6.256 2.12 6.56 5.432 0.92 9.76 2.456 19.552 4.56 29.112a6.036 6.036 0 0 1-5.896 7.328m-5.768-54.344h-0.016a6.036 6.036 0 0 1-6.016-6.048c0.032-10.32 0.696-20.712 1.96-30.896 0.416-3.312 3.448-5.696 6.72-5.24a6.012 6.012 0 0 1 5.24 6.72c-1.2 9.704-1.824 19.608-1.856 29.448a6.044 6.044 0 0 1-6.032 6.016M269.128 457.176c-0.448 0-0.896-0.048-1.344-0.144a6.03 6.03 0 0 1-4.544-7.224 258.36 258.36 0 0 1 3.832-14.736c0.928-3.192 4.264-5 7.472-4.104a6.028 6.028 0 0 1 4.104 7.472 242.418 242.418 0 0 0-3.648 14.04 6.018 6.018 0 0 1-5.872 4.696M298.008 385.256a5.94 5.94 0 0 1-3.08-0.856 6.032 6.032 0 0 1-2.088-8.272 245.528 245.528 0 0 1 8.208-12.824 6.014 6.014 0 0 1 8.376-1.576 6.02 6.02 0 0 1 1.576 8.376 241.436 241.436 0 0 0-7.808 12.216 6.054 6.054 0 0 1-5.184 2.936M705.64 667.208c-1.32 0-2.656-0.432-3.76-1.32a6.02 6.02 0 0 1-0.96-8.464 240.852 240.852 0 0 0 16.504-23.44 6.014 6.014 0 0 1 8.296-1.952 6.026 6.026 0 0 1 1.952 8.296 253.722 253.722 0 0 1-17.336 24.608 5.954 5.954 0 0 1-4.696 2.272m28.48-44.864a6.034 6.034 0 0 1-5.4-8.704 240.7 240.7 0 0 0 11.144-26.432 6.034 6.034 0 0 1 7.688-3.672 6.034 6.034 0 0 1 3.672 7.696 253.286 253.286 0 0 1-11.696 27.744 6.026 6.026 0 0 1-5.408 3.368m18.272-49.936a6.042 6.042 0 0 1-5.864-7.48 243.304 243.304 0 0 0 5.216-28.208 6.026 6.026 0 1 1 11.96 1.496 257.888 257.888 0 0 1-5.464 29.608 6.04 6.04 0 0 1-5.848 4.584m7.136-52.672c-0.056 0-0.104 0-0.168-0.008a6.02 6.02 0 0 1-5.856-6.192c0.056-2.312 0.096-4.632 0.096-6.96 0.008-7.192-0.312-14.488-0.944-21.696a6.032 6.032 0 0 1 5.472-6.536c3.232-0.296 6.24 2.16 6.536 5.472 0.664 7.552 1.008 15.216 0.992 22.768a245.6 245.6 0 0 1-0.104 7.288 6.02 6.02 0 0 1-6.024 5.864m-4.12-52.96a6.032 6.032 0 0 1-5.912-4.92c-1.76-9.408-4.096-18.76-6.928-27.824a6.028 6.028 0 0 1 3.952-7.552c3.152-1.024 6.552 0.768 7.552 3.952a252.908 252.908 0 0 1 7.272 29.208 6.03 6.03 0 0 1-4.808 7.04 7.004 7.004 0 0 1-1.128 0.096m-15.328-50.872a6 6 0 0 1-5.544-3.68 243.6 243.6 0 0 0-12.704-25.672 6.02 6.02 0 0 1 2.24-8.224 6.026 6.026 0 0 1 8.224 2.24 254.816 254.816 0 0 1 13.336 26.96 6.024 6.024 0 0 1-5.552 8.376m-25.824-46.432a6.04 6.04 0 0 1-4.936-2.552 242.988 242.988 0 0 0-17.888-22.4 6.032 6.032 0 0 1 0.456-8.512 6.05 6.05 0 0 1 8.52 0.456 258.8 258.8 0 0 1 18.768 23.496 6.052 6.052 0 0 1-1.44 8.416 6.11 6.11 0 0 1-3.48 1.096m-393.864-15.768a6.032 6.032 0 0 1-4.632-9.888 256.58 256.58 0 0 1 20.592-21.944 6.03 6.03 0 1 1 8.296 8.76 244.93 244.93 0 0 0-19.624 20.912 6.022 6.022 0 0 1-4.632 2.16m358.752-24.128a5.98 5.98 0 0 1-4.072-1.584 243.704 243.704 0 0 0-22.232-18.104 6.04 6.04 0 0 1-1.36-8.424 6.058 6.058 0 0 1 8.424-1.36 256.972 256.972 0 0 1 23.312 19 6.022 6.022 0 0 1 0.376 8.512 6 6 0 0 1-4.448 1.96m-320.576-12.848a6 6 0 0 1-4.76-2.328 6.016 6.016 0 0 1 1.048-8.456 257.54 257.54 0 0 1 24.768-17.088 6.05 6.05 0 0 1 8.288 2.032 6.044 6.044 0 0 1-2.032 8.288 243.5 243.5 0 0 0-23.608 16.272c-1.096 0.872-2.4 1.28-3.704 1.28m277.816-18.704c-1.032 0-2.08-0.272-3.04-0.832a240.214 240.214 0 0 0-25.568-12.96c-3.056-1.328-4.456-4.88-3.128-7.936s4.888-4.464 7.928-3.136a252.324 252.324 0 0 1 26.848 13.624 6.016 6.016 0 0 1 2.16 8.248 6.006 6.006 0 0 1-5.2 2.992m-232.664-9.336a6.052 6.052 0 0 1-5.448-3.416 6.024 6.024 0 0 1 2.816-8.048c9.032-4.344 18.408-8.2 27.856-11.432a6.05 6.05 0 0 1 7.656 3.76 6.04 6.04 0 0 1-3.752 7.664 241.22 241.22 0 0 0-26.52 10.872c-0.848 0.408-1.736 0.6-2.608 0.6m184.176-12.384c-0.616 0-1.248-0.104-1.864-0.296a239.146 239.146 0 0 0-27.76-7.192 6.03 6.03 0 0 1-4.752-7.08c0.64-3.272 3.864-5.384 7.08-4.752a253.62 253.62 0 0 1 29.16 7.56 6.024 6.024 0 0 1-1.864 11.76m-134.128-5.352c-2.728 0-5.2-1.872-5.856-4.64a6.02 6.02 0 0 1 4.472-7.256 253.224 253.224 0 0 1 29.656-5.192c3.312-0.336 6.296 1.984 6.672 5.312a6.032 6.032 0 0 1-5.304 6.672c-9.464 1.08-18.96 2.744-28.232 4.944a7.1 7.1 0 0 1-1.408 0.16m82.104-5.496c-0.2 0-0.4-0.008-0.6-0.032a240.72 240.72 0 0 0-28.64-1.12c-3.264-0.152-6.08-2.584-6.152-5.912a6.036 6.036 0 0 1 5.904-6.152c10.048-0.2 20.152 0.208 30.072 1.184a6.03 6.03 0 0 1-0.584 12.032M678.92 695.84a6.03 6.03 0 0 1-4.072-10.472 238.332 238.332 0 0 0 10.4-10.104 6.02 6.02 0 0 1 8.528-0.136 6.028 6.028 0 0 1 0.136 8.528 252.956 252.956 0 0 1-10.92 10.6 5.98 5.98 0 0 1-4.072 1.584M634.712 624.256a6.024 6.024 0 0 1-4.464-10.08c27.032-29.768 41.92-68.32 41.92-108.56 0-44.672-17.832-86.224-50.208-117.024a6.038 6.038 0 0 1-0.216-8.528 6.052 6.052 0 0 1 8.528-0.216c34.8 33.104 53.96 77.768 53.96 125.768 0 43.248-16.008 84.68-45.056 116.672a6.03 6.03 0 0 1-4.464 1.968M590.304 364.216c-0.968 0-1.952-0.232-2.856-0.728-23.424-12.672-49.96-19.368-76.768-19.368a6.032 6.032 0 1 1 0-12.064c28.8 0 57.328 7.2 82.496 20.824a6.014 6.014 0 0 1 2.432 8.168 6 6 0 0 1-5.304 3.168M353.008 568.408a6.04 6.04 0 0 1-5.672-3.984 173.22 173.22 0 0 1-10.224-58.8c0-69.912 41.616-132.68 106-159.912a6.028 6.028 0 1 1 4.704 11.104c-59.928 25.344-98.64 83.744-98.64 148.808 0 18.784 3.2 37.2 9.504 54.712a6.04 6.04 0 0 1-3.632 7.72 6.182 6.182 0 0 1-2.04 0.352M510.68 679.176c-54.88 0-107.136-26.408-139.768-70.632a6.048 6.048 0 0 1 1.272-8.44 6.044 6.044 0 0 1 8.44 1.272c30.368 41.16 78.984 65.728 130.064 65.728a6.036 6.036 0 0 1 6.032 6.032 6.05 6.05 0 0 1-6.04 6.04" fill="#474341" p-id="2165"></path><path d="M596.256 505.616c0 47.264-38.312 85.576-85.576 85.576s-85.584-38.312-85.584-85.576 38.312-85.576 85.584-85.576c47.264 0 85.576 38.312 85.576 85.576" fill="#F7BE15" p-id="2166"></path><path d="M510.68 597.224c-50.512 0-91.608-41.096-91.608-91.608s41.096-91.608 91.608-91.608 91.608 41.104 91.608 91.608c0 50.512-41.096 91.608-91.608 91.608m0-171.152c-43.864 0-79.544 35.68-79.544 79.544s35.68 79.544 79.544 79.544 79.544-35.672 79.544-79.544c-0.008-43.864-35.688-79.544-79.544-79.544" fill="#474341" p-id="2167"></path><path d="M311.688 407.24c0 17.232-13.968 31.2-31.2 31.2s-31.2-13.968-31.2-31.2 13.968-31.2 31.2-31.2c17.224 0 31.2 13.968 31.2 31.2" fill="#5BC1ED" p-id="2168"></path><path d="M280.48 444.48c-20.536 0-37.232-16.704-37.232-37.232s16.704-37.232 37.232-37.232c20.536 0 37.232 16.704 37.232 37.232s-16.696 37.232-37.232 37.232m0-62.408c-13.88 0-25.168 11.288-25.168 25.168s11.288 25.168 25.168 25.168 25.168-11.288 25.168-25.168-11.288-25.168-25.168-25.168" fill="#474341" p-id="2169"></path><path d="M385.16 585.608c0 13.448-10.904 24.352-24.352 24.352s-24.352-10.904-24.352-24.352 10.904-24.352 24.352-24.352 24.352 10.904 24.352 24.352" fill="#EC6646" p-id="2170"></path><path d="M360.808 615.992c-16.752 0-30.384-13.64-30.384-30.384 0-16.752 13.64-30.384 30.384-30.384 16.752 0 30.384 13.64 30.384 30.384s-13.632 30.384-30.384 30.384m0-48.712c-10.104 0-18.32 8.216-18.32 18.32s8.216 18.32 18.32 18.32 18.32-8.216 18.32-18.32c0-10.104-8.216-18.32-18.32-18.32" fill="#474341" p-id="2171"></path><path d="M633.832 366.416c0 12.744-10.328 23.072-23.072 23.072s-23.072-10.328-23.072-23.072 10.328-23.072 23.072-23.072 23.072 10.328 23.072 23.072" fill="#3AB394" p-id="2172"></path><path d="M610.76 395.52c-16.048 0-29.104-13.064-29.104-29.104 0-16.048 13.064-29.104 29.104-29.104 16.048 0 29.104 13.056 29.104 29.104 0.008 16.04-13.056 29.104-29.104 29.104m0-46.144c-9.4 0-17.04 7.64-17.04 17.032s7.64 17.04 17.04 17.04c9.4 0 17.04-7.648 17.04-17.04s-7.64-17.032-17.04-17.032" fill="#474341" p-id="2173"></path><path d="M678.6 699.272c0 11.72-9.504 21.216-21.216 21.216-11.72 0-21.216-9.496-21.216-21.216s9.504-21.216 21.216-21.216c11.712 0.008 21.216 9.504 21.216 21.216" fill="#9478B5" p-id="2174"></path><path d="M657.384 726.528c-15.024 0-27.24-12.232-27.24-27.256s12.216-27.248 27.24-27.248 27.256 12.224 27.256 27.248-12.232 27.256-27.256 27.256m0-42.432a15.192 15.192 0 0 0-15.184 15.184c0 8.376 6.8 15.184 15.184 15.184s15.192-6.816 15.192-15.184c0-8.384-6.816-15.184-15.192-15.184M806.504 419.344c-2.56 0-4.928-1.64-5.744-4.192-10.936-34.288-28.128-66.216-51.072-94.912a6.038 6.038 0 0 1 0.944-8.48c2.568-2.072 6.384-1.656 8.48 0.952 23.872 29.84 41.752 63.072 53.136 98.76a6.03 6.03 0 0 1-3.912 7.576c-0.608 0.2-1.224 0.296-1.832 0.296M699.36 268.608c-1.28 0-2.568-0.408-3.664-1.248-46.928-36.032-104.472-58.432-162.016-63.088a6.026 6.026 0 0 1-5.52-6.496c0.272-3.312 3.232-5.928 6.496-5.52 60.688 4.912 118.912 27.568 168.376 65.536a6.04 6.04 0 0 1 1.112 8.464 6.026 6.026 0 0 1-4.784 2.352M488.896 204.064a6.034 6.034 0 0 1-0.416-12.048c9.792-0.68 19.736-0.92 29.488-0.648a6.01 6.01 0 0 1 5.864 6.184 6.036 6.036 0 0 1-6.024 5.88c-0.048 0-0.096 0-0.16-0.008-9.36-0.208-18.912-0.024-28.328 0.632-0.136 0-0.28 0.008-0.424 0.008M411.456 219.488a6.026 6.026 0 0 1-5.712-4.104 6.022 6.022 0 0 1 3.784-7.64 317.32 317.32 0 0 1 57.232-13.48c3.312-0.416 6.336 1.848 6.8 5.144a6.036 6.036 0 0 1-5.144 6.8c-18.76 2.616-37.288 6.968-55.04 12.968-0.624 0.216-1.28 0.312-1.92 0.312M194.32 552.864a6.044 6.044 0 0 1-5.976-5.28c-11.36-90.624 16.776-181.664 77.192-249.768a6.048 6.048 0 0 1 8.512-0.504 6.034 6.034 0 0 1 0.512 8.512c-58.12 65.504-85.176 153.072-74.256 240.256a6.028 6.028 0 0 1-5.232 6.728 3.968 3.968 0 0 1-0.752 0.056M213.624 627.864a6.032 6.032 0 0 1-5.6-3.808 314.392 314.392 0 0 1-16.24-54.984 6.032 6.032 0 0 1 4.752-7.08c3.216-0.6 6.44 1.48 7.08 4.752a301.512 301.512 0 0 0 15.608 52.864 6.044 6.044 0 0 1-3.376 7.832c-0.728 0.28-1.48 0.424-2.224 0.424M353.368 786.336c-0.984 0-1.984-0.24-2.912-0.752-45.344-25.032-84.512-61.472-113.264-105.368a6.026 6.026 0 0 1 1.736-8.352c2.808-1.808 6.536-1.032 8.352 1.736 27.68 42.272 65.368 77.336 109.008 101.432a6.014 6.014 0 0 1 2.36 8.192 6.016 6.016 0 0 1-5.28 3.112M510.616 824.376a6.04 6.04 0 0 1-6.032-6.024 6.04 6.04 0 0 1 6.024-6.04c23.048-0.024 45.944-2.592 68.08-7.632a6.08 6.08 0 0 1 7.224 4.544 6.028 6.028 0 0 1-4.544 7.224 320.906 320.906 0 0 1-70.736 7.936h-0.016v-0.008zM599.472 811.48a6.048 6.048 0 0 1-5.776-4.296 6.022 6.022 0 0 1 4.04-7.512c8.2-2.464 16.328-5.28 24.128-8.368a6.054 6.054 0 0 1 7.832 3.392 6.038 6.038 0 0 1-3.392 7.832 319.754 319.754 0 0 1-25.096 8.696 6.006 6.006 0 0 1-1.736 0.256M657.032 787.608a6.008 6.008 0 0 1-5.304-3.16 6.024 6.024 0 0 1 2.424-8.176c49.808-26.968 91.376-67.344 120.208-116.744a6.03 6.03 0 0 1 10.416 6.08c-29.952 51.32-73.136 93.256-124.88 121.272a6 6 0 0 1-2.864 0.728M802.12 620.936c-0.696 0-1.4-0.12-2.104-0.384a6.02 6.02 0 0 1-3.544-7.752 298.046 298.046 0 0 0 8.968-28.488 6.014 6.014 0 0 1 7.344-4.32 6.016 6.016 0 0 1 4.32 7.344 303.104 303.104 0 0 1-9.328 29.664 6.03 6.03 0 0 1-5.656 3.936" fill="#474341" p-id="2175"></path></svg>