<?xml version="1.0" standalone="no"?><!DOCTYPE svg PUBLIC "-//W3C//DTD SVG 1.1//EN" "http://www.w3.org/Graphics/SVG/1.1/DTD/svg11.dtd"><svg t="1563037749545" class="icon" viewBox="0 0 1024 1024" version="1.1" xmlns="http://www.w3.org/2000/svg" p-id="2053" xmlns:xlink="http://www.w3.org/1999/xlink" width="48" height="48"><defs><style type="text/css"></style></defs><path d="M512 0C230.4 0 0 230.4 0 512s230.4 512 512 512 512-230.4 512-512S793.6 0 512 0z m0 981.333c-258.133 0-469.333-211.2-469.333-469.333S253.867 42.667 512 42.667 981.333 253.867 981.333 512 770.133 981.333 512 981.333z" p-id="2054" fill="#e6e6e6"></path><path d="M672 441.6L501.333 328.533c-57.6-38.4-106.666-12.8-106.666 57.6v256c0 70.4 46.933 96 106.666 57.6L672 586.667C729.6 544 729.6 480 672 441.6z" p-id="2055" fill="#e6e6e6"></path></svg>